<svg xmlns="http://www.w3.org/2000/svg" xmlns:xlink="http://www.w3.org/1999/xlink" viewBox="0 0 864 216"><defs><style>.cls-1{fill:url(#New_Gradient_Swatch_2);}</style><linearGradient id="New_Gradient_Swatch_2" x1="47.87" y1="108" x2="816.13" y2="108" gradientUnits="userSpaceOnUse"><stop offset="0" stop-color="#2b50aa"/><stop offset="0.11" stop-color="#5f7ac1"/><stop offset="0.29" stop-color="#abb8e2"/><stop offset="0.42" stop-color="#dcdff7"/><stop offset="0.48" stop-color="#eef"/><stop offset="0.59" stop-color="#f1dded"/><stop offset="0.8" stop-color="#f8b1bd"/><stop offset="1" stop-color="#ff858d"/></linearGradient></defs><g id="Guides"><path class="cls-1" d="M82,101.51c0-27.68,18.52-44.1,41.81-44.1,23.48,0,42,16.42,42,44.1v48.87a7.71,7.71,0,0,1-7.64,7.83,7.59,7.59,0,0,1-7.64-7.83V101.13c0-19.47-11.83-29.59-26.72-29.59-14.7,0-26.54,10.12-26.54,29.59v49.25a7.7,7.7,0,0,1-7.63,7.83A7.59,7.59,0,0,1,82,150.38Zm213.23,41.81a48.23,48.23,0,0,1-35.7,15.27C231.42,158.59,210,136.25,210,108s21.38-50.59,49.44-50.59a49,49,0,0,1,35.7,15.27V65.43a7.67,7.67,0,0,1,7.64-7.64,7.54,7.54,0,0,1,7.63,7.64v84.95a7.58,7.58,0,0,1-7.63,7.83,7.71,7.71,0,0,1-7.64-7.83Zm0-33.79v-3.06c-.76-19.85-15.84-34.93-34.74-34.93C241,71.54,225.5,87.38,225.5,108s15.47,36.46,34.94,36.46C279.34,144.46,294.42,129.38,295.18,109.53ZM332.6,29.16a7.54,7.54,0,0,1,7.63-7.64,7.67,7.67,0,0,1,7.64,7.64V150.38a7.71,7.71,0,0,1-7.64,7.83,7.58,7.58,0,0,1-7.63-7.83Zm118,114.16a48.23,48.23,0,0,1-35.7,15.27c-28.06,0-49.44-22.34-49.44-50.59s21.38-50.59,49.44-50.59a49,49,0,0,1,35.7,15.27V65.43a7.67,7.67,0,0,1,7.64-7.64,7.54,7.54,0,0,1,7.63,7.64v84.95a7.58,7.58,0,0,1-7.63,7.83,7.71,7.71,0,0,1-7.64-7.83Zm0-33.79v-3.06c-.76-19.85-15.85-34.93-34.74-34.93-19.48,0-34.94,15.84-34.94,36.46s15.46,36.46,34.94,36.46C434.72,144.46,449.81,129.38,450.57,109.53Zm52.69,33.79v43.33a7.71,7.71,0,0,1-7.64,7.83,7.59,7.59,0,0,1-7.64-7.83V65.43a7.54,7.54,0,0,1,7.64-7.64,7.67,7.67,0,0,1,7.64,7.64v7.25A48.62,48.62,0,0,1,539,57.41C567,57.41,588.4,79.75,588.4,108S567,158.59,539,158.59A47.91,47.91,0,0,1,503.26,143.32ZM572.93,108c0-20.62-15.46-36.46-34.93-36.46-19.09,0-34,15.08-34.74,34.93v3.06c.76,19.85,15.65,34.93,34.74,34.93C557.47,144.46,572.93,128.62,572.93,108Zm28.83,0c0-28.25,21.76-50.59,50.39-50.59S702.36,79.75,702.36,108s-21.57,50.59-50.21,50.59S601.76,136.25,601.76,108Zm85.14,0c0-20.24-15.08-36.46-34.75-36.46S617.22,87.76,617.22,108c0,20,15.27,36.46,34.93,36.46S686.9,128,686.9,108Zm114,35.32a48.23,48.23,0,0,1-35.7,15.27c-28.06,0-49.44-22.34-49.44-50.59s21.38-50.59,49.44-50.59a49,49,0,0,1,35.7,15.27V29.16a7.67,7.67,0,0,1,7.64-7.64,7.54,7.54,0,0,1,7.63,7.64V150.38a7.58,7.58,0,0,1-7.63,7.83,7.71,7.71,0,0,1-7.64-7.83Zm0-33.79v-3.06C800.1,86.62,785,71.54,766.12,71.54c-19.48,0-34.94,15.84-34.94,36.46s15.46,36.46,34.94,36.46C785,144.46,800.1,129.38,800.86,109.53Zm-699.14-56C95.08,44.4,50,50.48,47.9,80.13c-.66,11.32,7.8,14,8.4,27,.63,13.68-8.14,21.8-5.11,24.55,2.72,2.48,13.12-1.16,19.29-8.93,8.82-11.09.68-20.11,8.92-42.65,4.53-12.37,9.83-17.48,12.08-19.43C97.35,55.6,102,55,101.72,53.48Zm54.55,7.15c2.25,2,7.56,7.06,12.08,19.43,8.24,22.55.11,31.57,8.92,42.66,6.18,7.76,16.57,11.4,19.3,8.92,3-2.74-5.75-10.86-5.12-24.54.6-13.06,9.06-15.71,8.4-27C197.79,50.41,152.67,44.33,146,53.42,145.77,54.94,150.4,55.54,156.27,60.63Z"/></g></svg>